<svg xmlns="http://www.w3.org/2000/svg" viewBox="0 0 400 400">
  <rect width="400" height="400" fill="#f5f0e8" rx="12"/>
  <!-- Wood grain base -->
  <ellipse cx="200" cy="345" rx="70" ry="12" fill="#8b7355" opacity="0.3"/>
  <!-- Body - walnut colored with wood grain texture -->
  <path d="M160 320 Q140 260 145 210 Q150 170 175 150 Q200 135 225 150 Q250 170 255 210 Q260 260 240 320 Z" fill="#5c4033"/>
  <path d="M165 310 Q148 260 152 215 Q156 178 178 158 Q200 145 222 158 Q244 178 248 215 Q252 260 235 310 Z" fill="#6b4c3b"/>
  <!-- Wood grain lines -->
  <path d="M175 180 Q200 175 225 180" stroke="#4a3528" stroke-width="0.5" fill="none" opacity="0.4"/>
  <path d="M170 210 Q200 205 230 210" stroke="#4a3528" stroke-width="0.5" fill="none" opacity="0.4"/>
  <path d="M168 240 Q200 235 232 240" stroke="#4a3528" stroke-width="0.5" fill="none" opacity="0.4"/>
  <path d="M167 270 Q200 265 233 270" stroke="#4a3528" stroke-width="0.5" fill="none" opacity="0.3"/>
  <!-- Ear tufts -->
  <path d="M165 165 L152 125 L178 150 Z" fill="#5c4033"/>
  <path d="M235 165 L248 125 L222 150 Z" fill="#5c4033"/>
  <path d="M167 163 L157 132 L177 152 Z" fill="#6b4c3b"/>
  <path d="M233 163 L243 132 L223 152 Z" fill="#6b4c3b"/>
  <!-- Face disc -->
  <ellipse cx="200" cy="195" rx="40" ry="35" fill="#d4c4a8"/>
  <ellipse cx="200" cy="195" rx="36" ry="31" fill="#e8dcc8"/>
  <!-- Eyes - glass inlaid -->
  <circle cx="185" cy="190" r="10" fill="#1a1a2e"/>
  <circle cx="215" cy="190" r="10" fill="#1a1a2e"/>
  <circle cx="185" cy="190" r="7" fill="#c8a832"/>
  <circle cx="215" cy="190" r="7" fill="#c8a832"/>
  <circle cx="185" cy="190" r="3.5" fill="#1a1a2e"/>
  <circle cx="215" cy="190" r="3.5" fill="#1a1a2e"/>
  <circle cx="183" cy="187" r="2" fill="#fff" opacity="0.7"/>
  <circle cx="213" cy="187" r="2" fill="#fff" opacity="0.7"/>
  <!-- Beak -->
  <path d="M195 202 L200 212 L205 202 Z" fill="#8b7355"/>
  <!-- Felt wing details -->
  <path d="M145 220 Q130 250 135 290 Q140 300 155 295 Q148 260 155 230 Z" fill="#7a6248" opacity="0.7"/>
  <path d="M255 220 Q270 250 265 290 Q260 300 245 295 Q252 260 245 230 Z" fill="#7a6248" opacity="0.7"/>
  <!-- Wing felt texture lines -->
  <path d="M140 250 Q148 248 152 255" stroke="#5c4033" stroke-width="1" fill="none" opacity="0.5"/>
  <path d="M138 270 Q148 268 154 275" stroke="#5c4033" stroke-width="1" fill="none" opacity="0.5"/>
  <path d="M260 250 Q252 248 248 255" stroke="#5c4033" stroke-width="1" fill="none" opacity="0.5"/>
  <path d="M262 270 Q252 268 246 275" stroke="#5c4033" stroke-width="1" fill="none" opacity="0.5"/>
  <!-- Feet -->
  <path d="M175 318 Q168 328 160 330 Q170 335 180 328 Z" fill="#5c4033"/>
  <path d="M225 318 Q232 328 240 330 Q230 335 220 328 Z" fill="#5c4033"/>
  <!-- Beeswax sheen highlight -->
  <ellipse cx="190" cy="230" rx="15" ry="30" fill="#fff" opacity="0.04"/>
</svg>
