<svg xmlns="http://www.w3.org/2000/svg" viewBox="0 0 400 400">
  <rect width="400" height="400" fill="#f5f0e8" rx="12"/>
  <!-- Walnut post -->
  <rect x="192" y="120" width="16" height="220" rx="4" fill="#6b5040"/>
  <rect x="195" y="120" width="10" height="220" fill="#7a5e4c"/>
  <circle cx="200" cy="120" r="8" fill="#7a5e4c" stroke="#6b5040" stroke-width="1.5"/>
  <!-- Base -->
  <ellipse cx="200" cy="340" rx="70" ry="15" fill="#6b5040"/>
  <ellipse cx="200" cy="337" rx="68" ry="13" fill="#7a5e4c"/>
  <!-- Ring 6 (bottom) - Bear - brown, largest -->
  <ellipse cx="200" cy="320" rx="60" ry="18" fill="#8b6040"/>
  <ellipse cx="200" cy="316" rx="58" ry="15" fill="#9a7050"/>
  <circle cx="178" cy="310" r="4" fill="#7a5030"/><circle cx="222" cy="310" r="4" fill="#7a5030"/>
  <circle cx="185" cy="314" r="2" fill="#3a2818"/><circle cx="215" cy="314" r="2" fill="#3a2818"/>
  <ellipse cx="200" cy="318" rx="3" ry="2" fill="#3a2818"/>
  <!-- Ring 5 - Fox - orange -->
  <ellipse cx="200" cy="290" rx="52" ry="16" fill="#d47030"/>
  <ellipse cx="200" cy="287" rx="50" ry="14" fill="#e08040"/>
  <path d="M175 282 L168 272 L180 280 Z" fill="#d47030"/>
  <path d="M225 282 L232 272 L220 280 Z" fill="#d47030"/>
  <circle cx="188" cy="285" r="1.8" fill="#3a2818"/><circle cx="212" cy="285" r="1.8" fill="#3a2818"/>
  <ellipse cx="200" cy="288" rx="5" ry="3" fill="#f8f0e8"/>
  <!-- Ring 4 - Owl - dark brown -->
  <ellipse cx="200" cy="262" rx="45" ry="14" fill="#5a4030"/>
  <ellipse cx="200" cy="259" rx="43" ry="12" fill="#6a5040"/>
  <circle cx="190" cy="257" r="5" fill="#e8dcc8"/><circle cx="210" cy="257" r="5" fill="#e8dcc8"/>
  <circle cx="190" cy="257" r="2.5" fill="#3a2818"/><circle cx="210" cy="257" r="2.5" fill="#3a2818"/>
  <path d="M197 262 L200 265 L203 262 Z" fill="#c8a060"/>
  <!-- Ring 3 - Rabbit - grey -->
  <ellipse cx="200" cy="238" rx="38" ry="12" fill="#a8a0a0"/>
  <ellipse cx="200" cy="235" rx="36" ry="10" fill="#b8b0b0"/>
  <path d="M188 230 L185 215 L192 228 Z" fill="#b8b0b0"/>
  <path d="M212 230 L215 215 L208 228 Z" fill="#b8b0b0"/>
  <circle cx="193" cy="233" r="1.5" fill="#3a2818"/><circle cx="207" cy="233" r="1.5" fill="#3a2818"/>
  <ellipse cx="200" cy="236" rx="2" ry="1.5" fill="#d8a8a8"/>
  <!-- Ring 2 - Bird - blue -->
  <ellipse cx="200" cy="215" rx="30" ry="10" fill="#4888b8"/>
  <ellipse cx="200" cy="212" rx="28" ry="8" fill="#5898c8"/>
  <circle cx="194" cy="211" r="1.5" fill="#1a2838"/><circle cx="206" cy="211" r="1.5" fill="#1a2838"/>
  <path d="M198 214 L200 216 L202 214 Z" fill="#e8a830"/>
  <!-- Ring 1 (top) - Mouse - pink, smallest -->
  <ellipse cx="200" cy="195" rx="22" ry="8" fill="#d8a0a0"/>
  <ellipse cx="200" cy="193" rx="20" ry="6.5" fill="#e8b0b0"/>
  <circle cx="190" cy="187" r="5" fill="#e8b0b0" stroke="#d8a0a0" stroke-width="0.8"/>
  <circle cx="210" cy="187" r="5" fill="#e8b0b0" stroke="#d8a0a0" stroke-width="0.8"/>
  <circle cx="196" cy="192" r="1.2" fill="#3a2818"/><circle cx="204" cy="192" r="1.2" fill="#3a2818"/>
  <ellipse cx="200" cy="194" rx="1.5" ry="1" fill="#d88080"/>
</svg>
